<svg id="Group_6" data-name="Group 6" xmlns="http://www.w3.org/2000/svg" xmlns:xlink="http://www.w3.org/1999/xlink" width="352.424" height="84.467" viewBox="0 0 352.424 84.467">
  <defs>
    <clipPath id="clip-path">
      <rect id="Rectangle_8" data-name="Rectangle 8" width="352.424" height="84.467" fill="none"/>
    </clipPath>
  </defs>
  <path id="Path_8" data-name="Path 8" d="M289.731,40.944l-8.5,30.926-8.534-30.926-7.524.06-8.5,30.867-8.534-30.926H240.6l12.52,42.821H260.2l8.713-30.451,8.772,30.451h7.077l12.49-42.821Z" transform="translate(-117.854 -20.055)" fill="#fff"/>
  <g id="Group_5" data-name="Group 5">
    <g id="Group_4" data-name="Group 4" clip-path="url(#clip-path)">
      <path id="Path_9" data-name="Path 9" d="M376.7,66.156a9.348,9.348,0,0,0-4.832-4.579,18.969,18.969,0,0,0-7.538-1.4q-5.68,0-9.025,2.469a12.131,12.131,0,0,0-4.535,6.542l6.542,2.051a5.61,5.61,0,0,1,2.825-3.479,9.263,9.263,0,0,1,4.193-1.011q3.6,0,5.115,1.576a6.03,6.03,0,0,1,1.447,3.838c-1.291.191-2.559.375-3.781.548q-3.049.432-5.65.938a39.277,39.277,0,0,0-4.535,1.129,12.713,12.713,0,0,0-4.164,2.216,8.368,8.368,0,0,0-2.379,3.212,10.79,10.79,0,0,0-.773,4.178,9.738,9.738,0,0,0,1.234,4.847,9.045,9.045,0,0,0,3.643,3.524,12.087,12.087,0,0,0,5.888,1.323,14.687,14.687,0,0,0,7.241-1.621,13.283,13.283,0,0,0,4.029-3.6v4.328h6.275V73.471q0-2.081-.179-3.851a9.754,9.754,0,0,0-1.041-3.464m-5.962,13.753a9.2,9.2,0,0,1-.639,3.137A7.425,7.425,0,0,1,368.72,85.4a8.281,8.281,0,0,1-2.751,2.112,9.226,9.226,0,0,1-4.163.862,6.68,6.68,0,0,1-2.84-.536,4.07,4.07,0,0,1-1.739-1.442,3.733,3.733,0,0,1-.595-2.1,3.471,3.471,0,0,1,.461-1.814,4.429,4.429,0,0,1,1.323-1.368,9.137,9.137,0,0,1,2.111-1.041,27.364,27.364,0,0,1,2.944-.758q1.665-.342,3.985-.729c.986-.164,2.111-.346,3.347-.543-.012.546-.032,1.162-.061,1.867" transform="translate(-171.249 -29.477)" fill="#fff"/>
      <path id="Path_10" data-name="Path 10" d="M444.344,44.441h-7.136v8.921H422.16V44.441h-7.137v8.921H409.2v5.62h5.828V72.364q0,2.737.059,4.907a9.576,9.576,0,0,0,1.161,4.252,7.461,7.461,0,0,0,3.657,3.345A14.353,14.353,0,0,0,425.357,86a29.9,29.9,0,0,0,6.23-.52V79.471a22.938,22.938,0,0,1-5.352.238,4.15,4.15,0,0,1-3.421-1.992,4.794,4.794,0,0,1-.609-2.378q-.044-1.457-.044-3.391V58.982h15.047V72.364q0,2.737.059,4.907a9.569,9.569,0,0,0,1.16,4.252,7.459,7.459,0,0,0,3.657,3.345A14.353,14.353,0,0,0,447.54,86a29.885,29.885,0,0,0,6.23-.52V79.471a22.932,22.932,0,0,1-5.352.238A4.149,4.149,0,0,1,445,77.716a4.783,4.783,0,0,1-.609-2.378q-.046-1.457-.045-3.391V58.982h9.426v-5.62h-9.426Z" transform="translate(-200.433 -21.768)" fill="#fff"/>
      <rect id="Rectangle_6" data-name="Rectangle 6" width="7.166" height="43.713" transform="translate(258.577 19.996)" fill="#fff"/>
      <path id="Path_11" data-name="Path 11" d="M538.523,45.807h.622a3.435,3.435,0,0,0,0-6.87h-.622a3.435,3.435,0,0,0,0,6.87" transform="translate(-262.098 -19.072)" fill="#fff"/>
      <rect id="Rectangle_7" data-name="Rectangle 7" width="7.166" height="32.116" transform="translate(273.153 31.594)" fill="#fff"/>
      <path id="Path_12" data-name="Path 12" d="M591.836,68.268a13.228,13.228,0,0,0-2.022-3.926,10.411,10.411,0,0,0-3.688-3.033,12.866,12.866,0,0,0-5.887-1.19,13.851,13.851,0,0,0-7.613,1.978,12.712,12.712,0,0,0-2.884,2.519V61.041h-6.394V93.157H570.6v-16.5a15,15,0,0,1,.655-4.832A7.688,7.688,0,0,1,573,68.848a6.167,6.167,0,0,1,2.424-1.532,8.491,8.491,0,0,1,2.706-.446,6.734,6.734,0,0,1,4.058,1.1,6.9,6.9,0,0,1,2.261,2.811,12.067,12.067,0,0,1,.966,3.553,30.279,30.279,0,0,1,.208,3.361V93.157h7.256V75.226q0-1.16-.193-3.019a20.189,20.189,0,0,0-.848-3.94" transform="translate(-275.94 -29.448)" fill="#fff"/>
      <path id="Path_13" data-name="Path 13" d="M649.334,67.707l12.46-16.058h-8.951L641.1,67.112V40.943h-7.256l-.06,42.821H641.1V68.3l12.281,15.463h9.486Z" transform="translate(-310.44 -20.055)" fill="#fff"/>
      <path id="Path_14" data-name="Path 14" d="M91,24.123a15.138,15.138,0,0,0-8.745-3.254c-6.066-.351-10.515,1.965-12.257,5.123a11.825,11.825,0,0,1-8.48,5.66L52.108,33.3A8.109,8.109,0,0,1,45.1,31.278l-.027-.026-.1-.094a4.951,4.951,0,0,1-1.49-5.114,4.557,4.557,0,0,1,.285-.641l3.181-5.77a11.392,11.392,0,0,1,8.015-5.413A10.411,10.411,0,0,0,62.29,9.448a5.6,5.6,0,0,0-1.033-7.021c-.066-.064-.134-.126-.2-.188-.113-.1-.23-.206-.353-.3a7.591,7.591,0,0,0-.7-.486A9.388,9.388,0,0,0,56.586.165a11.847,11.847,0,0,0-3.96,0,11.186,11.186,0,0,0-4.367,1.6,9.079,9.079,0,0,0-2.889,2.69,5.677,5.677,0,0,0-.179,6.472,6.99,6.99,0,0,1,.348,7.4L42,24.786a6.234,6.234,0,0,1-5.633,3.191,7.609,7.609,0,0,1-1.069-.026s-.245-.026-.488-.07a5.754,5.754,0,0,1-4.081-2.844l-2.59-4.89a7.226,7.226,0,0,1,.506-7.321,5.639,5.639,0,0,0,.346-5.878A5.938,5.938,0,0,0,23.31,4.254l-.183.014c-.142.012-.284.029-.427.049-.121.017-.241.036-.362.059-.079.015-.159.032-.239.049-.177.039-.354.082-.53.133l-.058.017c-.167.051-.334.107-.5.168a8.6,8.6,0,0,0-1.911.969,8.171,8.171,0,0,0-.955.758,6.368,6.368,0,0,0-2.03,6.683,5.445,5.445,0,0,0,4.55,3.425,7.479,7.479,0,0,1,5.761,3.779l2.854,5.46.14.269a4.947,4.947,0,0,1-.772,5.5l-.047.056a5.893,5.893,0,0,1-5.8,1.86l-1.877-.443-3.786-.9A7.341,7.341,0,0,1,11.833,27.4,5.432,5.432,0,0,0,7.72,23.781a6.693,6.693,0,0,0-7.488,5c0,.01-.007.019-.009.029s-.007.034-.011.052c-.028.108-.061.213-.083.323a6.347,6.347,0,0,0-.1.71c0,.022,0,.044,0,.065-.008.1-.02.2-.023.3,0,.057,0,.113,0,.17,0,.023,0,.047,0,.071,0,.142.007.283.016.423,0,.043.006.087.009.131.011.113.027.224.043.336.009.063.016.127.028.189s.021.1.031.145a5.553,5.553,0,0,0,3.413,4.161,6.09,6.09,0,0,0,5.82-.934,8.15,8.15,0,0,1,6.819-1.518L20.512,34.5l2.61.646a5.213,5.213,0,0,1,3.615,3.345c.044.262.095.522.162.778a5.148,5.148,0,0,1-2.184,5.549L19.747,48.18a8.577,8.577,0,0,1-3.1,1.3,8.46,8.46,0,0,1-4.8-.539,6.22,6.22,0,0,0-6.133.563C2.7,51.63,1.9,56.172,4.036,59.694A7.829,7.829,0,0,0,5.05,61.016c.049.053.1.107.149.158s.1.1.154.152c.156.158.307.318.479.468a6.248,6.248,0,0,0,5.076,1.552,6.727,6.727,0,0,0,5.657-6.58,8.582,8.582,0,0,1,3.607-6.845l5.918-3.987a6.19,6.19,0,0,1,5.479-.575,6.67,6.67,0,0,1,.631.278l.234.118a6.877,6.877,0,0,1,3.036,2.872c.039.071.082.141.117.213.085.175.154.356.222.538.032.086.07.169.1.257a5.408,5.408,0,0,1,.263,1.657c-.006,2.15-.013,4.8-.02,7.228a8.467,8.467,0,0,1-4.715,7.68A7.1,7.1,0,0,0,27.6,72.6c-.137,5.938,5.646,12.281,12.408,11.846.236-.012.473-.032.712-.061a6.436,6.436,0,0,0,5.3-3.939c1.734-4.175-.026-8.84-3.283-11.854-2.806-2.6-4.543-5.873-4.558-9.084l-.042-8.867a5.539,5.539,0,0,1,3.58-4.387c.082-.03.163-.062.244-.094a8.168,8.168,0,0,1,7.592,1.347l6.764,5.1c3.428,2.585,5.7,6.369,5.55,10.054-.127,3.113,1.582,6.654,5,9.459,5.708,4.678,14.011,5.548,18.357,1.663.056-.048.118-.091.172-.14s.1-.095.153-.141c.08-.071.162-.141.236-.218a6.938,6.938,0,0,0,1.658-2.859c.033-.1.083-.186.113-.287a8.162,8.162,0,0,0-.661-5.789c-.067-.141-.124-.284-.2-.424-.013-.027-.029-.053-.041-.08A14.727,14.727,0,0,0,82.426,58.8,17.749,17.749,0,0,0,70.52,55.011a18.1,18.1,0,0,1-11.97-3.248l-8.29-6.1A5.754,5.754,0,0,1,47.7,39.82c.032-.133.061-.266.086-.4A5.565,5.565,0,0,1,51.824,35.2L61.3,33.634a17.671,17.671,0,0,1,12.364,2.8,15.164,15.164,0,0,0,2.6,1.365,17.63,17.63,0,0,0,8.9,1.162,14.866,14.866,0,0,0,3.737-.976c3.616-1.493,5.745-4.282,5.643-7.385-.023-2.163-1.136-4.439-3.547-6.478" transform="translate(0 0)" fill="#ffa63b"/>
    </g>
  </g>
</svg>
